# xmcd
#
# Track frame offsets:
#	150
#	15712
#	29598
#	44053
#	58361
#	72876
#	87983
#	104077
#	117791
#	133739
#	148014
#	164292
#	179239
#	193455
#	205827
#	220170
#	232665
#	246498
#	260606
#	275205
#	289388
#	303626
#	317640
#	332331
#	344432
#
# Disc length: 4771 seconds
#
# Revision: 0
# Processed by: cddbd v1.5.1PL0 Copyright (c) Steve Scherf et al.
# Submitted via: audiograbber 1.83.01
#
DISCID=a212a119
DTITLE=Various Artist - Atlanta Blues - CD 1
DYEAR=2005
DGENRE=Blues
TTITLE0=Julius Daniels - My Mamma Was a Sailor
TTITLE1=Julius Daniels - Ninety-Nine Year Blues (take 1)
TTITLE2=Julius Daniels - Ninety-Nine Year Blues (take 2)
TTITLE3=Julius Daniels - I'm Goin' to Tell God How You Doin'
TTITLE4=Julius Daniels - Slippin' and Slidin' Up the Golden Street (take 2)
TTITLE5=Julius Daniels - Slippin' and Slidin' Up the Golden Street (take 3)
TTITLE6=Julius Daniels - Can't Put the Bridle on the Mule, This Morning (take 1
TTITLE6=)
TTITLE7=Julius Daniels - Can't Put the Bridle on the Mule, This Morning (take 2
TTITLE7=)
TTITLE8=Julius Daniels - Richmond Blues
TTITLE9=Julius Daniels - Richmond Blues (take 2)
TTITLE10=Julius Daniels - Crow Jane Blues
TTITLE11=Curley Weaver - Sweet Petunia
TTITLE12=Curley Weaver - No No Blues
TTITLE13=Curley Weaver - No No Blues (& Eddie Mapp)
TTITLE14=Curley Weaver - Dirty Deal Blues
TTITLE15=Curley Weaver - It's the Best Stuff, Yet
TTITLE16=Curley Weaver - Ta Ta Blues
TTITLE17=Curley Weaver - Baby Boogie Woogie
TTITLE18=Curley Weaver - Wild Cat Kitten
TTITLE19=Curley Weaver - No No Blues (take 1)
TTITLE20=Curley Weaver - No No Blues (take 2)
TTITLE21=Curley Weaver - Early Morning Blues
TTITLE22=Curley Weaver - Leg Iron Blues
TTITLE23=Curley Weaver - Some Cold, Rainy Day
TTITLE24=Curley Weaver - Tippin' Tom
EXTD=JSP7754A
EXTT0=
EXTT1=
EXTT2=
EXTT3=
EXTT4=
EXTT5=
EXTT6=
EXTT7=
EXTT8=
EXTT9=
EXTT10=
EXTT11=
EXTT12=
EXTT13=
EXTT14=
EXTT15=
EXTT16=
EXTT17=
EXTT18=
EXTT19=
EXTT20=
EXTT21=
EXTT22=
EXTT23=
EXTT24=
PLAYORDER=
